# xmcd CD database file
#
# Track frame offsets:
#	151
#	22447
#	46554
#	63901
#	83669
#	108600
#	130508
#	153921
#	179202
#	202946
#	223731
#	241568
#	263620
#	284815
#	306559
#
# Disc length: 4398 seconds
#
# Revision: 0
# Processed by: cddbd v1.5.1PL0 Copyright (c) Steve Scherf et al.
# Submitted via: CDex 1.51
#
DISCID=d6112c0f
DTITLE=Grupo Niche - Los 30 Mejores (Disco 2)
DYEAR=1900
DGENRE=Salsa
TTITLE0=Sin sentimiento
TTITLE1=Busca por dentro
TTITLE2=Cali aji
TTITLE3=Entrega
TTITLE4=Nuestro sueño
TTITLE5=Del puente pa' alla
TTITLE6=Mi hijo y yo
TTITLE7=La negra no quiere
TTITLE8=Se parecio tanto a ti
TTITLE9=Cielo de tambores
TTITLE10=Debiera olvidarla
TTITLE11=Las mujeres estan de moda
TTITLE12=Doña Pastora
TTITLE13=Buenaventura y Caney
TTITLE14=Solo un cariño
EXTD=
EXTT0=
EXTT1=
EXTT2=
EXTT3=
EXTT4=
EXTT5=
EXTT6=
EXTT7=
EXTT8=
EXTT9=
EXTT10=
EXTT11=
EXTT12=
EXTT13=
EXTT14=
PLAYORDER=
